<svg xmlns="http://www.w3.org/2000/svg" version="1.1" xmlns:xlink="http://www.w3.org/1999/xlink" xmlns:svgjs="http://svgjs.dev/svgjs" width="1000" height="1000" viewBox="0 0 1000 1000"><rect width="1000" height="1000" fill="#ffffff"></rect><g transform="matrix(0.7,0,0,0.7,149.57575757575756,404.49698410907604)"><svg viewBox="0 0 396 108" data-background-color="#6936f5" preserveAspectRatio="xMidYMid meet" height="272" width="1000" xmlns="http://www.w3.org/2000/svg" xmlns:xlink="http://www.w3.org/1999/xlink"><g id="tight-bounds" transform="matrix(1,0,0,1,0.2400000000000091,0.17187876165854732)"><svg viewBox="0 0 395.52 107.65624247668289" height="107.65624247668289" width="395.52"><g><svg viewBox="0 0 580.5244391287378 158.01243877043822" height="107.65624247668289" width="395.52"><g transform="matrix(1,0,0,1,0,21.838187992151745)"><svg viewBox="0 0 395.52 114.33606278613473" height="114.33606278613473" width="395.52"><g id="textblocktransform"><svg viewBox="0 0 395.52 114.33606278613473" height="114.33606278613473" width="395.52" id="textblock"><g><svg viewBox="0 0 395.52 114.33606278613473" height="114.33606278613473" width="395.52"><g transform="matrix(1,0,0,1,0,0)"><svg width="395.52" viewBox="0.699999988079071 -34.79999923706055 152.88999938964844 44.19999694824219" height="114.33606278613473" data-palette-color="#ffffff"><path d="M13.2 0.6L13.2 0.6Q10.75 0.6 9.03-0.13 7.3-0.85 6.18-2.2 5.05-3.55 4.53-5.43 4-7.3 4-9.6L4-9.6 4-18.3 0.7-18.3 0.7-24.7 4.5-25 5.5-31.5 12.6-31.5 12.6-25 18.3-25 18.3-18.3 12.6-18.3 12.6-9.75Q12.6-7.65 13.5-6.88 14.4-6.1 15.6-6.1L15.6-6.1Q16.2-6.1 16.78-6.23 17.35-6.35 17.8-6.5L17.8-6.5 19.1-0.3Q18.1 0 16.7 0.3 15.3 0.6 13.2 0.6ZM33.5 0.6L33.5 0.6Q30.75 0.6 28.4-0.28 26.05-1.15 24.32-2.83 22.6-4.5 21.6-6.95 20.6-9.4 20.6-12.5L20.6-12.5Q20.6-15.55 21.62-17.98 22.65-20.4 24.32-22.1 26-23.8 28.15-24.7 30.3-25.6 32.6-25.6L32.6-25.6Q35.35-25.6 37.4-24.65 39.45-23.7 40.8-22.05 42.15-20.4 42.82-18.2 43.5-16 43.5-13.5L43.5-13.5Q43.5-12.35 43.37-11.35 43.25-10.35 43.15-9.9L43.15-9.9 28.9-9.9Q29.5-7.65 31.05-6.78 32.6-5.9 34.7-5.9L34.7-5.9Q36-5.9 37.22-6.28 38.45-6.65 39.8-7.4L39.8-7.4 42.6-2.3Q40.55-0.85 38.07-0.13 35.6 0.6 33.5 0.6ZM28.8-15.5L28.8-15.5 36.2-15.5Q36.2-16.95 35.47-18.03 34.75-19.1 32.8-19.1L32.8-19.1Q31.35-19.1 30.27-18.25 29.2-17.4 28.8-15.5ZM59.5 0.6L59.5 0.6Q56.84 0.6 54.55-0.28 52.25-1.15 50.55-2.83 48.84-4.5 47.87-6.95 46.9-9.4 46.9-12.5L46.9-12.5Q46.9-15.6 48-18.05 49.09-20.5 50.95-22.18 52.8-23.85 55.22-24.73 57.65-25.6 60.3-25.6L60.3-25.6Q62.55-25.6 64.34-24.9 66.15-24.2 67.59-23L67.59-23 63.59-17.5Q62.75-18.2 62.12-18.45 61.5-18.7 60.8-18.7L60.8-18.7Q58.4-18.7 57.05-17.03 55.7-15.35 55.7-12.5L55.7-12.5Q55.7-9.65 57.07-7.98 58.45-6.3 60.5-6.3L60.5-6.3Q61.55-6.3 62.57-6.75 63.59-7.2 64.5-7.9L64.5-7.9 67.8-2.3Q65.9-0.65 63.67-0.03 61.45 0.6 59.5 0.6ZM80.39 0L71.79 0 71.79-34.8 80.39-34.8 80.39-26.7 79.99-22.4Q81.29-23.55 83.12-24.58 84.94-25.6 87.49-25.6L87.49-25.6Q91.59-25.6 93.44-22.83 95.29-20.05 95.29-15.4L95.29-15.4 95.29 0 86.69 0 86.69-14.3Q86.69-16.7 86.09-17.5 85.49-18.3 84.19-18.3L84.19-18.3Q82.99-18.3 82.19-17.8 81.39-17.3 80.39-16.4L80.39-16.4 80.39 0ZM109.49 0L100.89 0 100.89-34.8 109.49-34.8 109.49-26.7 109.09-22.4Q110.39-23.55 112.22-24.58 114.04-25.6 116.59-25.6L116.59-25.6Q120.69-25.6 122.54-22.83 124.39-20.05 124.39-15.4L124.39-15.4 124.39 0 115.79 0 115.79-14.3Q115.79-16.7 115.19-17.5 114.59-18.3 113.29-18.3L113.29-18.3Q112.09-18.3 111.29-17.8 110.49-17.3 109.49-16.4L109.49-16.4 109.49 0ZM133.69 9.4L133.69 9.4Q132.39 9.4 131.56 9.28 130.74 9.15 129.89 8.9L129.89 8.9 131.39 2.4Q131.74 2.5 132.16 2.6 132.59 2.7 132.99 2.7L132.99 2.7Q134.74 2.7 135.61 2.02 136.49 1.35 136.89 0.2L136.89 0.2 137.19-0.9 127.69-25 136.29-25 139.29-15.4Q139.84-13.65 140.24-11.93 140.64-10.2 141.09-8.3L141.09-8.3 141.29-8.3Q141.69-10.1 142.06-11.85 142.44-13.6 142.89-15.4L142.89-15.4 145.39-25 153.59-25 145.19-0.4Q144.19 2.15 143.16 4 142.14 5.85 140.79 7.05 139.44 8.25 137.71 8.83 135.99 9.4 133.69 9.4Z" opacity="1" transform="matrix(1,0,0,1,0,0)" fill="#000000" class="wordmark-text-0" data-fill-palette-color="primary" id="text-0"></path></svg></g></svg></g></svg></g></svg></g><g transform="matrix(1,0,0,1,422.51200035829953,0)"><svg viewBox="0 0 158.01243877043822 158.01243877043822" height="158.01243877043822" width="158.01243877043822"><g data-palette-color="#ffffff"><rect width="43.190066597253114" height="158.01243877043822" fill="#000000" stroke="transparent" data-fill-palette-color="accent" x="0" fill-opacity="1"></rect><rect width="43.190066597253114" height="158.01243877043822" fill="#000000" stroke="transparent" data-fill-palette-color="accent" x="52.67081292347941" fill-opacity="0.75"></rect><rect width="43.190066597253114" height="158.01243877043822" fill="#000000" stroke="transparent" data-fill-palette-color="accent" x="105.34162584695882" fill-opacity="0.5"></rect></g></svg></g></svg></g><defs></defs></svg><rect width="395.52" height="107.65624247668289" fill="none" stroke="none" visibility="hidden"></rect></g></svg></g></svg>