<svg width="1000" height="272" viewBox="0 0 1000 272" fill="none" xmlns="http://www.w3.org/2000/svg">
<g clip-path="url(#clip0_101_126)">
<g clip-path="url(#clip1_101_126)">
<g clip-path="url(#clip2_101_126)">
<g clip-path="url(#clip3_101_126)">
<g clip-path="url(#clip4_101_126)">
<g clip-path="url(#clip5_101_126)">
<g clip-path="url(#clip6_101_126)">
<g clip-path="url(#clip7_101_126)">
<path d="M56.8374 194.602C49.5876 194.602 43.4178 193.521 38.3281 191.361C33.2088 189.231 28.9921 186.168 25.6779 182.173C22.3341 178.178 19.8928 173.399 18.354 167.836C16.7857 162.303 16.0015 156.133 16.0015 149.327V110.71H1.35388V82.3029L18.2209 80.9712L22.6596 52.1198H54.1742V80.9712H79.4747V110.71H54.1742V148.661C54.1742 154.875 55.5058 159.122 58.169 161.4C60.8322 163.708 63.9393 164.862 67.4902 164.862C69.2657 164.862 71.0116 164.67 72.7279 164.285C74.4146 163.93 75.9237 163.531 77.2553 163.087L83.0256 190.607C80.0665 191.494 76.5156 192.382 72.3728 193.27C68.23 194.158 63.0516 194.602 56.8374 194.602ZM146.943 194.602C138.805 194.602 131.259 193.3 124.305 190.695C117.351 188.121 111.315 184.348 106.196 179.377C101.106 174.435 97.0815 168.339 94.1223 161.089C91.1632 153.84 89.6837 145.628 89.6837 136.455C89.6837 127.429 91.1928 119.321 94.2111 112.131C97.259 104.97 101.254 98.8739 106.196 93.8434C111.167 88.8129 116.834 84.9661 123.196 82.3029C129.558 79.6396 136.142 78.308 142.948 78.308C151.085 78.308 158.187 79.7136 164.254 82.5248C170.32 85.336 175.35 89.1828 179.345 94.0654C183.34 98.9479 186.329 104.644 188.311 111.154C190.323 117.664 191.329 124.618 191.329 132.016C191.329 135.419 191.137 138.6 190.752 141.559C190.397 144.518 190.072 146.664 189.776 147.995H126.525C128.3 154.653 131.481 159.27 136.068 161.844C140.655 164.448 146.055 165.75 152.269 165.75C156.116 165.75 159.844 165.188 163.455 164.063C167.094 162.968 170.912 161.311 174.906 159.092L187.335 181.729C181.268 186.02 174.566 189.231 167.227 191.361C159.918 193.521 153.157 194.602 146.943 194.602ZM126.081 123.139H158.927C158.927 118.848 157.847 115.105 155.687 111.909C153.556 108.743 149.606 107.159 143.836 107.159C139.545 107.159 135.802 108.417 132.606 110.932C129.439 113.448 127.264 117.516 126.081 123.139ZM262.348 194.602C254.477 194.602 247.153 193.3 240.377 190.695C233.571 188.121 227.653 184.348 222.622 179.377C217.562 174.435 213.597 168.339 210.727 161.089C207.856 153.84 206.421 145.628 206.421 136.455C206.421 127.281 208.049 119.07 211.304 111.82C214.529 104.57 218.894 98.4597 224.398 93.4883C229.872 88.5466 236.19 84.7737 243.351 82.1697C250.541 79.5953 258.058 78.308 265.899 78.308C272.557 78.308 278.535 79.3437 283.832 81.4151C289.188 83.4865 293.996 86.2977 298.257 89.8486L280.503 114.261C278.017 112.19 275.842 110.784 273.978 110.045C272.143 109.305 270.19 108.935 268.119 108.935C261.017 108.935 255.468 111.406 251.474 116.348C247.479 121.319 245.481 128.021 245.481 136.455C245.481 144.888 247.508 151.576 251.562 156.518C255.646 161.489 260.721 163.975 266.787 163.975C269.894 163.975 272.957 163.309 275.975 161.977C278.993 160.646 281.849 158.944 284.542 156.873L299.189 181.729C293.567 186.612 287.457 189.97 280.858 191.805C274.288 193.669 268.119 194.602 262.348 194.602ZM355.072 191.938H316.9V37.4722H355.072V73.4255L353.297 92.5118C357.144 89.1088 361.775 85.8834 367.19 82.8355C372.576 79.8172 379.041 78.308 386.587 78.308C398.72 78.308 407.523 82.4064 412.997 90.6032C418.472 98.8295 421.209 109.823 421.209 123.583V191.938H383.036V128.465C383.036 121.363 382.148 116.629 380.373 114.261C378.597 111.894 375.786 110.71 371.939 110.71C368.389 110.71 365.429 111.45 363.062 112.93C360.695 114.409 358.032 116.481 355.072 119.144V191.938ZM484.238 191.938H446.065V37.4722H484.238V73.4255L482.463 92.5118C486.309 89.1088 490.941 85.8834 496.356 82.8355C501.741 79.8172 508.207 78.308 515.753 78.308C527.885 78.308 536.689 82.4064 542.163 90.6032C547.637 98.8295 550.374 109.823 550.374 123.583V191.938H512.202V128.465C512.202 121.363 511.314 116.629 509.539 114.261C507.763 111.894 504.952 110.71 501.105 110.71C497.554 110.71 494.595 111.45 492.228 112.93C489.86 114.409 487.197 116.481 484.238 119.144V191.938ZM591.654 233.662C587.807 233.662 584.656 233.484 582.2 233.129C579.773 232.745 577.302 232.182 574.787 231.443L581.445 202.591C582.481 202.887 583.62 203.183 584.863 203.479C586.135 203.775 587.364 203.923 588.547 203.923C593.726 203.923 597.602 202.917 600.176 200.904C602.781 198.922 604.674 196.229 605.858 192.826L607.19 187.943L565.022 80.9712H603.195L616.511 123.583C618.138 128.761 619.544 133.895 620.728 138.985C621.911 144.104 623.169 149.475 624.5 155.097H625.388C626.572 149.771 627.711 144.518 628.806 139.34C629.93 134.161 631.158 128.909 632.49 123.583L643.587 80.9712H679.984L642.699 190.163C639.74 197.709 636.736 204.219 633.689 209.693C630.67 215.167 627.164 219.68 623.169 223.231C619.174 226.782 614.617 229.416 609.498 231.132C604.408 232.819 598.46 233.662 591.654 233.662Z" fill="#6936F5"/>
</g>
</g>
</g>
</g>
<g clip-path="url(#clip8_101_126)">
<path d="M800.432 0H726.322V271.134H800.432V0Z" fill="#6936F5"/>
<path d="M890.81 0H816.7V271.134H890.81V0Z" fill="#6936F5" fill-opacity="0.75"/>
<path d="M981.188 0H907.078V271.134H981.188V0Z" fill="#6936F5" fill-opacity="0.5"/>
</g>
</g>
</g>
</g>
</g>
<defs>
<clipPath id="clip0_101_126">
<rect width="1000" height="272" fill="white"/>
</clipPath>
<clipPath id="clip1_101_126">
<rect width="1000" height="272" fill="white" transform="translate(-0.606079 -0.432861)"/>
</clipPath>
<clipPath id="clip2_101_126">
<rect width="996.124" height="271.134" fill="white" transform="translate(1.33167)"/>
</clipPath>
<clipPath id="clip3_101_126">
<rect width="996.124" height="271.134" fill="white" transform="translate(1.33167)"/>
</clipPath>
<clipPath id="clip4_101_126">
<rect width="678.674" height="196.19" fill="white" transform="translate(1.33167 37.4722)"/>
</clipPath>
<clipPath id="clip5_101_126">
<rect width="678.674" height="196.19" fill="white" transform="translate(1.33167 37.4722)"/>
</clipPath>
<clipPath id="clip6_101_126">
<rect width="678.674" height="196.19" fill="white" transform="translate(1.33167 37.4722)"/>
</clipPath>
<clipPath id="clip7_101_126">
<rect width="678.674" height="196.19" fill="white" transform="translate(1.33167 37.4722)"/>
</clipPath>
<clipPath id="clip8_101_126">
<rect width="271.134" height="271.134" fill="white" transform="translate(726.322)"/>
</clipPath>
</defs>
</svg>
