<svg width="128" height="128" viewBox="0 0 128 128" fill="none" xmlns="http://www.w3.org/2000/svg">
<g clip-path="url(#clip0_103_149)">
<g clip-path="url(#clip1_103_149)">
<g clip-path="url(#clip2_103_149)">
<g clip-path="url(#clip3_103_149)">
<g clip-path="url(#clip4_103_149)">
<g clip-path="url(#clip5_103_149)">
<g clip-path="url(#clip6_103_149)">
<path d="M74.4079 115.168C69.1839 115.168 64.7381 114.389 61.0707 112.833C57.3819 111.298 54.3434 109.091 51.9553 106.212C49.5459 103.334 47.7868 99.8902 46.678 95.8816C45.5479 91.8943 44.9828 87.4485 44.9828 82.5443V54.7185H34.4282V34.2489L46.582 33.2894L49.7804 12.5H72.4888V33.2894H90.7196V54.7185H72.4888V82.0646C72.4888 86.5423 73.4484 89.6021 75.3674 91.2439C77.2864 92.9071 79.5253 93.7387 82.084 93.7387C83.3633 93.7387 84.6213 93.6001 85.858 93.3229C87.0734 93.067 88.1609 92.7791 89.1204 92.4593L93.2783 112.289C91.146 112.929 88.5873 113.569 85.6022 114.208C82.617 114.848 78.8856 115.168 74.4079 115.168Z" fill="#6936F5"/>
</g>
</g>
</g>
</g>
</g>
</g>
</g>
<defs>
<clipPath id="clip0_103_149">
<rect width="59.3874" height="103" fill="white" transform="translate(34.1597 12.334)"/>
</clipPath>
<clipPath id="clip1_103_149">
<rect width="58.85" height="102.668" fill="white" transform="translate(34.4282 12.5)"/>
</clipPath>
<clipPath id="clip2_103_149">
<rect width="58.85" height="102.668" fill="white" transform="translate(34.4282 12.5)"/>
</clipPath>
<clipPath id="clip3_103_149">
<rect width="58.85" height="102.668" fill="white" transform="translate(34.4282 12.5)"/>
</clipPath>
<clipPath id="clip4_103_149">
<rect width="58.85" height="102.668" fill="white" transform="translate(34.4282 12.5)"/>
</clipPath>
<clipPath id="clip5_103_149">
<rect width="58.85" height="102.668" fill="white" transform="translate(34.4282 12.5)"/>
</clipPath>
<clipPath id="clip6_103_149">
<rect width="58.85" height="102.668" fill="white" transform="translate(34.4282 12.5)"/>
</clipPath>
</defs>
</svg>
